<svg width="1034" height="1399" viewBox="0 0 1034 1399" fill="none" xmlns="http://www.w3.org/2000/svg">
<path d="M988.7 2.6441C989.2 2.7441 990.1 2.0441 990.9 1.1441C991.7 0.344101 992.4 -0.155899 992.5 0.0441012C992.5 0.344101 990.8 5.6441 988.7 11.8441C986.6 18.0441 984.4 24.2441 984 25.6441C983.5 27.0441 982 32.2441 980.6 37.1441C979.3 42.0441 977.5 49.5441 976.7 53.6441C975.8 57.7441 974.6 64.3441 974.1 68.1441C973.5 72.0441 972.5 80.3441 972 86.6441C971.5 92.9441 971 102.444 971 107.644C971 112.844 971.5 122.044 972 128.144C972.5 134.244 973.4 142.044 974 145.644C974.5 149.244 977 164.944 979.5 180.644C982 196.344 985.2 214.044 986.7 220.144C988.1 226.244 990.8 237.444 992.7 245.144C994.7 252.844 997.3 263.644 998.5 269.144C999.8 274.644 1002.7 285.644 1004.9 293.644C1007.2 301.644 1009 308.844 1009 309.644C1009 310.444 1010.4 315.644 1012 321.144C1013.7 326.644 1017.6 340.544 1020.5 352.144C1023.5 363.744 1027 379.244 1028.4 386.644C1029.8 394.044 1031.6 407.544 1032.4 416.644C1033.4 426.844 1034 443.344 1034 459.644C1034 476.144 1033.4 491.944 1032.5 501.644C1031.6 510.144 1029.8 524.544 1028.4 533.644C1027.1 542.744 1025 554.644 1023.9 560.144C1022.7 565.644 1020.7 574.444 1019.3 579.644C1018 584.844 1015.6 592.944 1014 597.644C1012.5 602.344 1008.9 611.544 1006 618.144C1003.2 624.744 997.6 636.444 993.6 644.144C989.6 651.844 982.2 665.144 977 673.644C971.9 682.144 965 693.144 961.7 698.144C958.4 703.144 950.7 714.144 944.6 722.644C938.5 731.144 930.1 742.444 926 747.644C921.8 752.844 916.2 760.244 913.5 764.144C910.9 768.044 907.6 772.244 906.4 773.644C905.2 775.044 901.6 779.744 898.5 784.144C895.3 788.544 891.7 793.544 890.3 795.144C889 796.744 885.8 800.844 883.2 804.144C880.6 807.444 878 810.844 877.3 811.644C876.7 812.444 872.4 817.944 867.8 823.744C863.2 829.544 857.2 837.144 854.5 840.544C851.7 844.044 846.5 850.944 842.8 855.944C839.1 861.044 834.2 867.644 831.8 870.644C829.3 873.644 822.2 884.044 815.8 893.644C809.5 903.244 802.8 913.844 801 917.144C799.2 920.444 797.1 923.844 796.5 924.644C795.8 925.444 793.7 929.044 791.8 932.644C789.8 936.244 786 942.944 783.3 947.644C780.5 952.344 772.5 967.444 765.5 981.144C758.5 994.944 748.6 1014.24 743.5 1024.14C738.4 1034.04 708 1093.44 676 1156.14C643.9 1218.84 611.7 1281.84 604.3 1296.14C597 1310.44 585.2 1333.64 578.2 1347.64C565.8 1372.54 565.3 1373.34 557.5 1381.24C551.7 1387.04 547.7 1390.24 543 1392.44C539.4 1394.14 532.4 1396.24 527.5 1397.14C521.6 1398.24 515.4 1398.64 509.5 1398.34C504.5 1398.14 498.7 1397.44 496.5 1396.94C494.3 1396.34 490.2 1395.04 487.5 1394.04C484.7 1392.94 482.3 1391.94 482 1391.64C481.7 1391.34 480 1390.14 478.2 1388.94C476.5 1387.64 474.7 1386.64 474.2 1386.64C473.8 1386.64 470.3 1383.34 466.4 1379.44C460.6 1373.44 457.2 1368.24 447 1350.64C440.3 1338.84 426.1 1314.04 415.5 1295.64C404.9 1277.24 386 1244.34 373.6 1222.64C361.1 1200.94 345.5 1173.94 339 1162.64C332.5 1151.34 322.3 1133.64 316.3 1123.14C310.3 1112.64 295.2 1086.64 260.5 1026.34L250.5 1017.84C245 1013.14 235.5 1004.94 229.5 999.744C223.4 994.544 212.5 984.844 205.1 978.144C197.8 971.544 182.3 956.244 170.6 944.144C159 931.944 145.9 917.544 141.5 912.144C137 906.644 131.4 899.444 128.9 896.144C126.4 892.844 117.6 880.444 109.5 868.644C97.4 851.144 92.8 843.444 84.8 827.144C79.4 816.144 73.1 802.444 70.9 796.644C68.7 790.844 65.3 780.544 63.4 773.644C61.5 766.744 58.4 752.844 56.5 742.644C54.7 732.444 52.4 715.844 51.5 705.644C50.7 695.444 49.1 678.844 48 668.644C47 658.444 45.8 645.444 45.5 639.644C45.2 633.844 44.5 624.444 43.9 618.644C43.3 612.844 42.2 602.944 41.4 596.644C40.6 590.344 39.4 580.444 38.6 574.644C37.8 568.844 36 558.244 34.6 551.144C33.2 544.044 31.2 534.344 30.1 529.644C29 524.944 26.1 515.244 23.6 508.144C21.1 501.044 16.3 488.444 12.8 480.144C9.3 471.944 5 463.044 3.2 460.444C1.5 457.744 0 455.444 0 455.144C0 454.844 1.5 454.944 3.2 455.244C5 455.644 10.1 456.944 14.5 458.344C18.9 459.744 30.4 463.944 40 467.844C49.6 471.644 68.3 479.444 81.5 485.144C94.7 490.744 110 497.344 115.5 499.644C121 501.944 137 509.644 151 516.844C165 524.044 180.5 532.144 185.5 534.944C190.4 537.644 198.3 542.144 203 544.944C207.7 547.744 220.3 555.844 231 563.044C241.7 570.144 255.9 580.044 262.5 584.944C269.1 589.944 279 597.844 284.4 602.544C289.9 607.244 298.3 614.744 303.1 619.144C308 623.544 319.1 635.244 327.7 645.244C337.1 655.944 350.5 673.044 360.6 687.244C370 700.344 380.4 715.644 383.7 721.144C387 726.644 392 735.744 394.9 741.444C397.7 747.044 401.7 756.044 403.9 761.344C406 766.744 409.4 776.344 411.3 782.644C413.3 788.944 416 798.644 417.4 804.144C418.8 809.644 420.6 817.544 421.4 821.644C422.2 825.744 423.5 833.144 424.1 838.144C425 844.744 425.1 863.444 424.6 908.144C424.3 941.644 423.7 969.344 423.3 969.644C423 969.944 422.5 969.444 422.2 968.644C421.9 967.844 416.8 959.944 411 951.144C405.1 942.344 391 920.944 379.5 903.644C368.1 886.344 352 862.944 343.7 851.644C335.4 840.344 319.6 819.244 308.6 804.744C297.5 790.144 284.2 772.844 278.8 766.244C273.5 759.544 264.7 749.144 259.3 743.044C253.9 736.944 243.2 724.744 235.5 716.044C227.8 707.244 211.2 689.644 198.5 676.744C185.9 663.944 172 650.544 167.7 647.044C163.5 643.544 159.5 640.644 159 640.644C158.4 640.644 158 640.844 158 641.144C158 641.444 160.4 645.544 163.3 650.344C166.3 655.244 171.3 662.744 174.6 667.144C177.8 671.544 183.6 680.144 187.4 686.144C191.2 692.244 200.9 707.244 209 719.644C217.1 732.044 234.3 759.044 247.2 779.644C260.1 800.244 273.4 821.844 276.7 827.644C280 833.444 319.3 903.144 364 982.644C408.7 1062.14 450.5 1135.94 456.8 1146.64L458.048 1148.76C464.701 1160.06 476.702 1180.45 485.8 1195.64C495.4 1211.84 504.7 1227.54 506.4 1230.44C508.2 1233.54 510.1 1235.54 511 1235.44C511.8 1235.24 515.1 1229.34 518.3 1222.14C521.6 1214.94 527.3 1202.44 531 1194.14C534.7 1185.94 547.3 1157.94 559 1132.14C570.7 1106.34 584.2 1076.34 589 1065.64C593.8 1054.94 607.5 1024.54 619.5 998.144C631.4 971.744 647.4 936.444 655 919.644C662.6 902.844 677.2 870.444 687.5 847.644C697.8 824.844 707.5 803.044 709 799.144C710.6 795.244 715.5 779.544 720 764.144C724.4 748.744 733.9 715.944 741.1 691.144C748.3 666.444 761.5 620.544 770.6 589.144C779.7 557.744 791.1 518.444 796 501.644C800.9 484.844 816.8 429.744 831.5 379.144C846.1 328.544 857.8 286.944 857.5 286.644C857.2 286.344 855.4 289.744 853.5 294.144C851.6 298.544 846 310.044 841.1 319.644C836.2 329.244 830.8 340.544 829 344.644C827.2 348.744 823.2 357.344 820.1 363.644C816.9 369.944 813.7 376.944 812.8 379.144C811.9 381.344 808.9 388.044 806 394.144C803.2 400.244 800.3 406.544 799.5 408.144C798.7 409.744 795.9 416.044 793.4 422.144C790.9 428.144 785.5 441.244 781.5 451.144C777.5 461.044 771 476.344 767 485.144C763.1 493.944 756.7 509.044 752.8 518.644C749 528.244 743.8 541.544 741.3 548.144C738.9 554.744 735.1 565.344 732.9 571.644C730.7 577.944 726 592.644 722.5 604.144C719 615.644 713.2 633.644 709.7 644.144C706.2 654.644 696 681.144 687 703.144C678.1 725.144 667.4 751.444 663.3 761.644C659.2 771.844 655.5 780.644 655.2 781.144C654.8 781.644 652.7 772.444 650.3 760.644C648 748.844 644.3 729.244 642.1 717.144C639.9 705.044 636.5 685.644 634.6 674.144C632.7 662.644 629.7 643.644 628.1 632.144C626.4 620.644 624.3 603.944 623.3 595.144C621.9 582.844 621.5 571.244 621.5 544.644C621.5 517.044 621.9 507.444 623.3 496.644C624.3 489.244 626 477.544 627.1 470.644C628.2 463.744 631.1 449.144 633.5 438.144C635.9 427.144 639.2 413.244 640.9 407.144C642.5 401.044 645.5 391.444 647.5 385.644C649.6 379.844 652.9 370.844 655 365.644C657.1 360.444 660.8 351.644 663.3 346.144C665.7 340.644 671 329.644 675 321.644C679 313.644 685 302.444 688.3 296.644C691.6 290.844 698.4 279.844 703.3 272.144C708.3 264.444 715.9 252.944 720.3 246.644C724.7 240.344 733.7 227.744 740.4 218.644C747 209.544 754.6 199.244 757.4 195.644C760.1 192.044 764 187.144 765.9 184.644C767.9 182.144 773.7 174.944 778.9 168.644C784.1 162.344 791.6 153.544 795.4 149.244C799.3 144.844 809 135.444 817 128.244C825 121.044 834.7 112.444 838.5 109.044C842.4 105.744 850 99.4441 855.5 95.0441C861 90.6441 870 83.7441 875.5 79.6441C881 75.6441 898.1 63.8441 913.5 53.6441C928.9 43.3441 948 30.0441 956 24.0441C964 18.1441 974.4 10.8441 979.2 7.9441C984.1 5.0441 988.3 2.6441 988.7 2.6441Z" fill="#018D55"/>
</svg>
